<svg xmlns="http://www.w3.org/2000/svg" xmlns:xlink="http://www.w3.org/1999/xlink" version="1.1" x="0px" y="0px" viewBox="0 0 512 512" enable-background="new 0 0 512 512" xml:space="preserve"><g><g><path d="M143.717,194.049c17.711,9.509,39.442,14.33,64.59,14.33c42.109,0,76.249-12.476,80.003-13.897    c3.611-1.369,5.729-5.123,5.034-8.922c-0.695-3.8-4.007-6.56-7.869-6.56H147.501c-3.667,0-6.864,2.493-7.759,6.049    C138.849,188.605,140.486,192.313,143.717,194.049z"></path><path d="M288.299,328.518c-13.642-5.162-45.84-13.898-79.992-13.898c-25.146,0-46.879,4.822-64.592,14.333    c-3.23,1.734-4.868,5.443-3.975,8.999c0.895,3.556,4.092,6.049,7.759,6.049h137.969c3.863,0,7.175-2.761,7.869-6.561    C294.032,333.639,291.912,329.885,288.299,328.518z"></path><path d="M476,220.495c0.599-1.233,0.877-2.612,0.787-4.008c-0.386-6.013-5.244-17.937-9.524-25.537    c-9.13-16.211-21.49-26.745-35.751-30.467l-0.105-0.027c-0.603-0.159-1.723-0.456-3.127-0.456H326.255    c-3.666-11.704-13.646-20.078-25.081-20.078c-7.264,0-13.174,5.646-13.174,12.584V160H80.841    c-0.827-0.145-2.332-0.237-3.618,0.042C60.89,163.613,30,179.207,30,212.662v95.084c0,30.935,27.043,48.503,45.988,53.133    c0.94,0.52,2.378,1.121,4.234,1.121H288v7.636c0,7.124,6.155,13.374,13.172,13.374c12.285,0,22.411-8.755,25.558-21.01h101.55    c2.002,0,3.549-0.693,4.566-1.321c31.384-9.181,42.05-48.073,43.185-52.569c0.449-1.784,0.221-3.351-0.03-4.373V220.495z     M460.073,305.825c-0.945,3.28-3.285,10.424-7.545,17.902c-6.792,11.927-15.22,19.273-25.04,21.834    c-0.465,0.121-0.889,0.272-1.271,0.438H319.743c-4.401,0-7.976,3.556-8,7.956c-0.032,5.981-3.312,11.036-7.743,12.573V354    c0-4.418-3.582-8-8-8H82.114c-0.431-0.18-0.923-0.345-1.473-0.466C71.006,343.427,46,332.528,46,307.746v-95.084    c0-22.493,21.176-33.617,33.408-36.699c0.25,0.022,0.523,0.037,0.814,0.037H296c4.418,0,8-3.582,8-8v-11.513    c4.02,1.615,7.298,6.5,7.704,12.092c0.304,4.183,3.785,7.421,7.979,7.421h107.922c9.905,2.631,18.796,10.512,25.717,22.802    c3.289,5.839,5.844,12.454,6.933,16.191C460.088,215.635,460,216.307,460,217v87.7C460,305.103,460.028,305.479,460.073,305.825z"></path><path d="M282,208.271v105.066l50.18,14.452c5.715-16.394,24.441-79.237,0.153-133.561L282,208.271z"></path><path d="M156,213.123L102.209,201.6c-17.988,59.659-4.492,107.245,0.064,120.646L156,309.671V213.123z"></path><path d="M431.749,298.694c-5.475,0-9.764,5.773-9.764,13.144c0,7.367,4.289,13.138,9.764,13.138c5.466,0,9.748-5.771,9.748-13.138    C441.497,304.468,437.215,298.694,431.749,298.694z"></path><path d="M431.393,222.028c5.026,0,8.964-5.307,8.964-12.08c0-6.774-3.938-12.082-8.964-12.082c-5.034,0-8.978,5.308-8.978,12.082    C422.415,216.722,426.358,222.028,431.393,222.028z"></path></g></g></svg>